<?xml version="1.0" encoding="UTF-8" standalone="no"?>
<!-- Created with Inkscape (http://www.inkscape.org/) -->

<svg
   width="210mm"
   height="297mm"
   viewBox="0 0 210 297"
   version="1.1"
   id="svg1"
   xmlns="http://www.w3.org/2000/svg"
   xmlns:svg="http://www.w3.org/2000/svg">
  <defs
     id="defs1" />
  <g
     id="layer1">
    <g
       id="text1"
       style="font-size:22.5778px;line-height:1.25;text-align:end;text-orientation:upright;text-anchor:end;stroke:#000000;stroke-width:0.264999;stroke-linecap:round;stroke-linejoin:round"
       aria-label="PROMO&#10;2030"
       transform="matrix(1,0,0,-1,-10e-6,246.38532)">
      <path
         style="stroke-width:0.265"
         d="m 100.81755,105.83488 q 0,1.09141 -0.38585,2.02848 -0.37482,0.92604 -1.058331,1.60955 -0.848872,0.84887 -2.006425,1.27882 -1.157554,0.41892 -2.921444,0.41892 h -2.182815 v 6.1185 H 90.07987 v -16.41521 h 4.453824 q 1.477259,0 2.50252,0.25356 1.025262,0.24253 1.819012,0.7717 0.937067,0.62839 1.444184,1.56545 0.51814,0.93707 0.51814,2.37023 z m -2.271004,0.0551 q 0,-0.84887 -0.297657,-1.47726 -0.297657,-0.62838 -0.903994,-1.02526 -0.529167,-0.34175 -1.212675,-0.48507 -0.672483,-0.15434 -1.708769,-0.15434 h -2.160766 v 6.55947 h 1.841061 q 1.322918,0 2.149742,-0.23151 0.826823,-0.24253 1.344966,-0.76068 0.518143,-0.52916 0.727605,-1.11345 0.220487,-0.58429 0.220487,-1.3119 z m 18.730314,11.39915 h -2.83325 l -5.49011,-6.5264 h -3.07578 v 6.5264 h -2.18282 v -16.41521 h 4.59714 q 1.48828,0 2.48047,0.19844 0.99219,0.18741 1.78594,0.6835 0.89297,0.56224 1.38907,1.42214 0.50711,0.84887 0.50711,2.16077 0,1.77491 -0.89297,2.97656 -0.89296,1.19063 -2.45842,1.79697 z m -5.10426,-11.79602 q 0,-0.70556 -0.25356,-1.24575 -0.24253,-0.55122 -0.8158,-0.92604 -0.47404,-0.31971 -1.12448,-0.44098 -0.65043,-0.13229 -1.53238,-0.13229 h -2.56866 v 6.19567 h 2.20486 q 1.03629,0 1.80799,-0.17639 0.7717,-0.18741 1.31189,-0.68351 0.4961,-0.46302 0.72761,-1.05833 0.24253,-0.60634 0.24253,-1.53238 z m 19.45792,-2.73403 q 1.00321,1.10243 1.53238,2.70095 0.54019,1.59853 0.54019,3.627 0,2.02848 -0.55121,3.63803 -0.54019,1.59853 -1.52136,2.66788 -1.01424,1.11346 -2.4033,1.6757 -1.37804,0.56224 -3.15295,0.56224 -1.73082,0 -3.15296,-0.57326 -1.41111,-0.57327 -2.4033,-1.66468 -0.99219,-1.0914 -1.53238,-2.67891 -0.52917,-1.5875 -0.52917,-3.627 0,-2.00642 0.52917,-3.59392 0.52917,-1.59853 1.5434,-2.73403 0.97014,-1.08039 2.40331,-1.65365 1.44418,-0.57327 3.14193,-0.57327 1.76389,0 3.16397,0.58429 1.41112,0.57327 2.39228,1.64263 z m -0.19844,6.32795 q 0,-3.19705 -1.43316,-4.92786 -1.43316,-1.74185 -3.91363,-1.74185 -2.50252,0 -3.93568,1.74185 -1.42214,1.73081 -1.42214,4.92786 0,3.23013 1.45521,4.94992 1.45521,1.70877 3.90261,1.70877 2.4474,0 3.89158,-1.70877 1.45521,-1.71979 1.45521,-4.94992 z m 20.35089,8.2021 h -2.18281 v -14.1442 l -4.56407,9.62423 h -1.30087 l -4.53099,-9.62423 v 14.1442 h -2.0395 v -16.41521 h 2.97656 l 4.37666,9.13916 4.23334,-9.13916 h 3.03168 z m 16.64672,-14.53005 q 1.00322,1.10243 1.53238,2.70095 0.54019,1.59853 0.54019,3.627 0,2.02848 -0.55121,3.63803 -0.54019,1.59853 -1.52136,2.66788 -1.01423,1.11346 -2.4033,1.6757 -1.37804,0.56224 -3.15295,0.56224 -1.73082,0 -3.15296,-0.57326 -1.41111,-0.57327 -2.4033,-1.66468 -0.99219,-1.0914 -1.53238,-2.67891 -0.52917,-1.5875 -0.52917,-3.627 0,-2.00642 0.52917,-3.59392 0.52917,-1.59853 1.54341,-2.73403 0.97014,-1.08039 2.4033,-1.65365 1.44418,-0.57327 3.14193,-0.57327 1.76389,0 3.16398,0.58429 1.41111,0.57327 2.39227,1.64263 z m -0.19843,6.32795 q 0,-3.19705 -1.43317,-4.92786 -1.43316,-1.74185 -3.91363,-1.74185 -2.50252,0 -3.93568,1.74185 -1.42214,1.73081 -1.42214,4.92786 0,3.23013 1.45521,4.94992 1.45521,1.70877 3.90261,1.70877 2.4474,0 3.89159,-1.70877 1.45521,-1.71979 1.45521,-4.94992 z"
         id="path2" />
      <path
         style="stroke-width:0.265"
         d="m 127.23182,145.5114 h -11.11251 v -2.30408 q 1.15755,-0.99219 2.3151,-1.98438 1.16858,-0.99219 2.17179,-1.97335 2.11667,-2.05053 2.8994,-3.25218 0.78273,-1.21267 0.78273,-2.61276 0,-1.27882 -0.84888,-1.9954 -0.83785,-0.72761 -2.34818,-0.72761 -1.00321,0 -2.17179,0.35278 -1.16857,0.35278 -2.28203,1.08038 h -0.11024 v -2.3151 q 0.78272,-0.38585 2.08359,-0.70556 1.3119,-0.3197 2.53559,-0.3197 2.52457,0 3.95773,1.2237 1.43317,1.21267 1.43317,3.29627 0,0.93706 -0.24254,1.75286 -0.23151,0.80478 -0.69453,1.53238 -0.42995,0.68351 -1.01424,1.34497 -0.57326,0.66146 -1.40009,1.46623 -1.1796,1.15756 -2.43637,2.24896 -1.25677,1.08039 -2.34818,2.00643 h 8.83048 z m 14.33161,-8.21312 q 0,4.42075 -1.38906,6.49332 -1.37804,2.06155 -4.28846,2.06155 -2.95452,0 -4.32154,-2.09462 -1.35599,-2.09462 -1.35599,-6.4382 0,-4.37665 1.37804,-6.46025 1.37804,-2.09462 4.29949,-2.09462 2.95451,0 4.3105,2.12769 1.36702,2.11667 1.36702,6.40513 z m -2.8994,5.00504 q 0.38586,-0.89297 0.51815,-2.09462 0.14331,-1.21267 0.14331,-2.91042 0,-1.67569 -0.14331,-2.91042 -0.13229,-1.23472 -0.52917,-2.09462 -0.38585,-0.84887 -1.05833,-1.27882 -0.66146,-0.42995 -1.70877,-0.42995 -1.03629,0 -1.7198,0.42995 -0.67248,0.42995 -1.06936,1.30087 -0.37482,0.8158 -0.51814,2.12769 -0.13229,1.3119 -0.13229,2.87735 0,1.71979 0.12127,2.87735 0.12126,1.15755 0.51814,2.07257 0.3638,0.85989 1.02526,1.31189 0.67248,0.452 1.77492,0.452 1.03628,0 1.71979,-0.42995 0.68351,-0.42995 1.05833,-1.30087 z m 15.83092,-4.69636 q 0.52917,0.47405 0.87092,1.19063 0.34176,0.71658 0.34176,1.85208 0,1.12448 -0.4079,2.06155 -0.4079,0.93707 -1.14653,1.6316 -0.82682,0.7717 -1.9513,1.14653 -1.11346,0.3638 -2.4474,0.3638 -1.36702,0 -2.68994,-0.33073 -1.32291,-0.3197 -2.17179,-0.70555 v -2.30409 h 0.16537 q 0.93707,0.61736 2.20486,1.02526 1.2678,0.4079 2.4474,0.4079 0.69453,0 1.47726,-0.23151 0.78272,-0.23151 1.26779,-0.6835 0.50712,-0.48507 0.74966,-1.06936 0.25356,-0.58429 0.25356,-1.47726 0,-0.88195 -0.28663,-1.45521 -0.27561,-0.58429 -0.77171,-0.91502 -0.49609,-0.34175 -1.20165,-0.46302 -0.70555,-0.13229 -1.52135,-0.13229 h -0.99219 v -1.83004 h 0.7717 q 1.6757,0 2.66789,-0.69453 1.00321,-0.70556 1.00321,-2.05052 0,-0.59532 -0.25356,-1.03629 -0.25356,-0.452 -0.70556,-0.73863 -0.47404,-0.28663 -1.01423,-0.39687 -0.5402,-0.11025 -1.2237,-0.11025 -1.04731,0 -2.22692,0.37483 -1.1796,0.37483 -2.22691,1.05833 h -0.11024 v -2.30408 q 0.78273,-0.38585 2.0836,-0.70555 1.31189,-0.33073 2.53559,-0.33073 1.20165,0 2.11667,0.22048 0.91501,0.22049 1.65364,0.70556 0.79376,0.52917 1.20165,1.27882 0.4079,0.74965 0.4079,1.75287 0,1.36701 -0.97014,2.39227 -0.95911,1.01424 -2.271,1.27882 v 0.15434 q 0.52916,0.0882 1.21267,0.37483 0.68351,0.27561 1.15755,0.69453 z m 15.7758,-0.30868 q 0,4.42075 -1.38906,6.49332 -1.37804,2.06155 -4.28846,2.06155 -2.95452,0 -4.32153,-2.09462 -1.356,-2.09462 -1.356,-6.4382 0,-4.37665 1.37804,-6.46025 1.37804,-2.09462 4.29949,-2.09462 2.95451,0 4.31051,2.12769 1.36701,2.11667 1.36701,6.40513 z m -2.89939,5.00504 q 0.38585,-0.89297 0.51814,-2.09462 0.14331,-1.21267 0.14331,-2.91042 0,-1.67569 -0.14331,-2.91042 -0.13229,-1.23472 -0.52917,-2.09462 -0.38585,-0.84887 -1.05833,-1.27882 -0.66146,-0.42995 -1.70877,-0.42995 -1.03629,0 -1.7198,0.42995 -0.67248,0.42995 -1.06935,1.30087 -0.37483,0.8158 -0.51815,2.12769 -0.13229,1.3119 -0.13229,2.87735 0,1.71979 0.12127,2.87735 0.12127,1.15755 0.51814,2.07257 0.3638,0.85989 1.02526,1.31189 0.67249,0.452 1.77492,0.452 1.03628,0 1.71979,-0.42995 0.68351,-0.42995 1.05834,-1.30087 z"
         id="path3" />
    </g>
  </g>
</svg>
