<?xml version="1.0" encoding="UTF-8"?>
<svg xmlns="http://www.w3.org/2000/svg" xmlns:xlink="http://www.w3.org/1999/xlink" width="350px" height="304px" viewBox="0 0 350 304" version="1.1">
<g id="surface1">
<path style=" stroke:none;fill-rule:nonzero;fill:rgb(0%,0%,0%);fill-opacity:1;" d="M 139.230469 21.203125 C 137.097656 23.167969 135.261719 25.261719 134.664062 26.5 L 133.640625 28.511719 L 130.953125 28.722656 C 129.457031 28.851562 127.75 29.195312 127.152344 29.492188 C 124.804688 30.5625 123.355469 35.050781 123.355469 41.164062 C 123.355469 45.351562 123.824219 50.4375 124.164062 50.4375 C 124.292969 50.4375 124.890625 49.582031 125.445312 48.515625 C 126.425781 46.632812 128.6875 44.539062 129.203125 45.011719 C 129.328125 45.136719 129.03125 46.335938 128.519531 47.660156 C 128.007812 48.984375 127.621094 50.824219 127.621094 51.804688 L 127.621094 53.601562 L 128.816406 52.449219 C 129.925781 51.378906 135.730469 48.601562 136.074219 48.941406 C 136.160156 48.984375 135.644531 50.183594 134.964844 51.550781 C 133.8125 53.859375 132.871094 56.851562 133.296875 56.851562 C 134.023438 56.851562 138.589844 55.011719 139.574219 54.285156 C 141.023438 53.21875 141.066406 53.34375 140.171875 56.210938 C 139.402344 58.730469 138.761719 61.980469 139.019531 61.980469 C 139.105469 61.980469 139.914062 61.425781 140.769531 60.699219 C 142.21875 59.542969 145.976562 57.875 145.976562 58.390625 C 145.976562 58.515625 145.421875 59.714844 144.695312 61.039062 C 143.585938 63.175781 142.605469 66.296875 143.03125 66.253906 C 143.117188 66.210938 144.738281 65.871094 146.617188 65.398438 C 148.492188 64.972656 150.160156 64.714844 150.285156 64.886719 C 150.757812 65.398438 153.785156 74.375 153.574219 74.589844 C 153.488281 74.71875 151.824219 74.675781 149.859375 74.503906 L 146.359375 74.246094 L 145.121094 72.453125 C 140.683594 65.996094 132.660156 62.878906 125.0625 64.628906 L 122.882812 65.144531 L 118.316406 60.570312 C 115.796875 58.046875 113.621094 55.996094 113.453125 55.996094 C 113.324219 55.996094 113.664062 57.960938 114.261719 60.355469 C 116.394531 69.460938 116.394531 69.03125 114.859375 70.742188 C 110.546875 75.65625 109.054688 83.566406 111.230469 89.847656 L 111.914062 91.902344 L 110.121094 93.996094 C 109.183594 95.191406 107.433594 96.945312 106.238281 97.886719 L 104.144531 99.679688 L 102.097656 98.953125 C 99.238281 97.972656 94.5 97.671875 91.726562 98.3125 C 88.824219 98.996094 85.023438 100.878906 83.019531 102.628906 C 81.3125 104.167969 81.738281 104.167969 72.6875 102.03125 C 70.257812 101.433594 68.292969 101.089844 68.292969 101.21875 C 68.292969 101.390625 70.339844 103.570312 72.859375 106.09375 L 77.382812 110.625 L 76.914062 113.101562 C 75.507812 120.070312 77.554688 126.480469 82.632812 131.183594 L 84.8125 133.191406 L 83.574219 138.320312 L 82.335938 143.492188 L 79.859375 143.964844 C 72.945312 145.203125 67.394531 150.035156 65.046875 156.789062 L 64.066406 159.609375 L 58.304688 161.277344 C 55.105469 162.214844 52.5 163.113281 52.5 163.285156 C 52.5 163.457031 55.105469 164.351562 58.304688 165.25 C 64.023438 166.875 64.152344 166.960938 64.75 168.414062 C 67.910156 176.152344 72.605469 180.296875 79.902344 181.835938 C 81.226562 182.136719 81.695312 182.988281 83.742188 189.144531 L 84.980469 192.992188 L 82.464844 195.558594 C 78.195312 199.960938 76.488281 204.789062 77 211.117188 L 77.257812 214.75 L 72.6875 219.367188 C 70.171875 221.886719 68.207031 224.023438 68.335938 224.109375 C 68.421875 224.195312 71.324219 223.597656 74.78125 222.785156 L 81.054688 221.332031 L 83.230469 223.253906 C 88.054688 227.617188 94.628906 229.238281 100.730469 227.65625 C 103.507812 226.929688 103.976562 227.1875 107.519531 231.078125 C 110.71875 234.582031 111.1875 235.652344 110.589844 238.214844 C 109.3125 243.859375 110.890625 250.269531 114.644531 254.714844 L 116.183594 256.511719 L 114.730469 262.792969 C 113.921875 266.257812 113.324219 269.164062 113.410156 269.25 C 113.492188 269.375 115.542969 267.453125 118.019531 265.015625 L 122.414062 260.613281 L 124.890625 261.085938 C 131.421875 262.410156 137.394531 260.871094 142.046875 256.683594 C 143.796875 255.101562 144.480469 254.757812 145.804688 254.757812 C 147.980469 254.757812 155.28125 256.296875 155.964844 256.894531 C 156.304688 257.109375 156.644531 258.050781 156.730469 258.945312 C 157.5 264.503906 162.921875 270.617188 169.109375 272.925781 C 170.773438 273.523438 171.203125 273.949219 171.5 275.019531 C 173.121094 280.789062 174.742188 285.960938 175 285.960938 C 175.171875 285.960938 176.109375 283.226562 177.046875 279.890625 C 178.03125 276.558594 178.882812 273.824219 178.925781 273.824219 C 179.011719 273.78125 180.121094 273.394531 181.402344 272.96875 C 187.207031 271.042969 191.476562 266.769531 193.738281 260.613281 C 194.292969 259.160156 195.785156 258.476562 202.273438 256.851562 L 207.097656 255.613281 L 208.546875 256.851562 C 213.074219 260.828125 219.644531 262.496094 225.195312 261.128906 L 227.160156 260.613281 L 231.597656 265.058594 C 234.03125 267.453125 236.078125 269.375 236.164062 269.25 C 236.25 269.164062 235.695312 266.382812 234.925781 263.136719 L 233.519531 257.152344 L 235.183594 255.355469 C 237.1875 253.175781 239.152344 249.371094 239.878906 246.253906 C 240.519531 243.472656 240.21875 238.730469 239.195312 235.78125 L 238.46875 233.726562 L 242.140625 230.09375 L 245.769531 226.417969 L 247.816406 227.144531 C 254.390625 229.410156 262.328125 227.785156 267.367188 223.128906 L 269.160156 221.460938 L 275.132812 222.871094 C 278.378906 223.640625 281.152344 224.195312 281.238281 224.109375 C 281.367188 224.023438 279.445312 221.972656 277.054688 219.535156 L 272.617188 215.089844 L 273.128906 213.125 C 274.621094 207.183594 272.742188 200.601562 268.175781 195.726562 L 266.339844 193.761719 L 267.621094 189.402344 C 269.628906 182.605469 270.054688 181.792969 271.507812 181.492188 C 274.195312 180.980469 277.695312 178.886719 280.257812 176.363281 C 282.644531 173.972656 283.628906 172.390625 285.25 168.414062 C 285.847656 166.960938 285.976562 166.875 291.695312 165.25 C 294.894531 164.351562 297.5 163.457031 297.5 163.285156 C 297.5 163.113281 294.894531 162.214844 291.695312 161.277344 L 285.933594 159.609375 L 284.953125 156.789062 C 283.757812 153.410156 281.964844 150.71875 279.316406 148.367188 C 277.097656 146.441406 273.425781 144.519531 271.164062 144.175781 C 269.328125 143.878906 269.203125 143.578125 267.878906 136.78125 L 266.855469 131.441406 L 268.476562 129.6875 C 272.660156 125.15625 274.453125 118.488281 273.128906 112.375 L 272.660156 110.195312 L 277.054688 105.75 C 279.488281 103.3125 281.367188 101.261719 281.238281 101.175781 C 281.152344 101.089844 278.292969 101.648438 274.964844 102.457031 L 268.816406 103.914062 L 267.195312 102.457031 C 263.695312 99.253906 259.042969 97.457031 254.390625 97.457031 C 251.957031 97.457031 248.457031 98.226562 246.75 99.167969 C 245.425781 99.851562 245.257812 99.636719 242.011719 93.867188 C 239.410156 89.335938 239.367188 89.207031 239.835938 87.371094 C 241.285156 81.640625 239.453125 75.015625 235.097656 70.273438 L 233.433594 68.476562 L 234.882812 62.320312 C 235.695312 58.988281 236.25 56.125 236.164062 56.039062 C 236.078125 55.910156 233.945312 57.875 231.425781 60.398438 L 226.859375 64.929688 L 225.152344 64.542969 C 221.269531 63.648438 216.1875 64.289062 212.476562 66.253906 C 211.535156 66.722656 210.640625 67.066406 210.554688 66.9375 C 210.425781 66.851562 212.519531 64.246094 215.121094 61.125 C 217.769531 58.046875 219.859375 55.484375 219.773438 55.398438 C 219.6875 55.3125 215.675781 55.953125 210.855469 56.894531 C 206.03125 57.789062 202.0625 58.558594 202.019531 58.558594 C 201.933594 58.558594 203.894531 55.269531 206.371094 51.207031 C 208.847656 47.191406 210.769531 43.8125 210.683594 43.726562 C 210.597656 43.640625 206.585938 45.480469 201.761719 47.832031 L 193.011719 52.0625 L 193.609375 50.054688 C 193.910156 48.984375 195.316406 44.582031 196.726562 40.265625 C 198.089844 35.992188 199.117188 32.484375 198.988281 32.484375 C 198.902344 32.484375 194.589844 35.863281 189.425781 40.007812 L 180.078125 47.488281 L 174.445312 47.875 C 171.328125 48.046875 168.46875 48.34375 168.085938 48.515625 C 167.617188 48.6875 164.628906 47.148438 158.992188 43.8125 L 150.628906 38.8125 L 150.925781 36.503906 L 151.183594 34.195312 L 149.476562 34.792969 L 147.726562 35.433594 L 148.367188 33.339844 C 148.707031 32.230469 149.261719 30.476562 149.605469 29.449219 C 149.945312 28.46875 150.203125 27.613281 150.160156 27.527344 C 150.074219 27.484375 148.109375 28.167969 145.761719 29.066406 C 143.414062 29.964844 141.453125 30.648438 141.410156 30.605469 C 141.324219 30.519531 142.644531 21.929688 143.160156 19.105469 C 143.285156 18.464844 143.242188 17.953125 143.074219 17.953125 C 142.902344 17.953125 141.152344 19.40625 139.230469 21.203125 Z M 180.335938 59.585938 C 183.453125 61.039062 185.03125 62.535156 186.480469 65.484375 C 189.171875 70.828125 187.675781 77.238281 182.9375 80.832031 C 176.664062 85.617188 168.085938 83.609375 164.457031 76.554688 C 163.261719 74.289062 163.046875 73.433594 163.046875 70.957031 C 163.046875 68.476562 163.261719 67.621094 164.457031 65.355469 C 165.910156 62.492188 168.769531 59.886719 171.328125 59.074219 C 173.847656 58.261719 178.03125 58.476562 180.335938 59.585938 Z M 133.855469 71.683594 C 136.671875 72.625 140.042969 76 140.980469 78.820312 C 142.046875 81.898438 141.921875 85.660156 140.683594 88.269531 C 139.230469 91.386719 137.738281 92.96875 134.792969 94.421875 C 129.882812 96.902344 124.421875 96.003906 120.535156 92.15625 C 117.976562 89.59375 116.953125 86.984375 116.953125 83.179688 C 116.953125 78.4375 119.511719 74.460938 123.867188 72.28125 C 126.9375 70.742188 130.4375 70.527344 133.855469 71.683594 Z M 225.621094 71.683594 C 228.4375 72.625 231.8125 76 232.75 78.820312 C 233.816406 81.898438 233.6875 85.660156 232.453125 88.269531 C 231 91.386719 229.507812 92.96875 226.5625 94.421875 C 221.652344 96.902344 216.1875 96.003906 212.304688 92.113281 C 209.53125 89.335938 208.507812 86.601562 208.804688 82.539062 C 209.144531 77.753906 211.410156 74.375 215.632812 72.28125 C 218.707031 70.742188 222.207031 70.527344 225.621094 71.683594 Z M 156.175781 82.796875 C 157.03125 87.113281 156.816406 88.394531 154.554688 93.054688 C 153.402344 95.449219 152.121094 98.613281 151.695312 100.066406 C 151.269531 101.5625 150.585938 103.613281 150.203125 104.597656 C 149.347656 106.605469 149.644531 106.5625 145.890625 104.980469 L 144.269531 104.296875 L 145.078125 106.304688 C 145.507812 107.460938 146.230469 109.167969 146.617188 110.195312 C 147.042969 111.222656 147.257812 112.121094 147.128906 112.246094 C 147 112.375 145.078125 111.476562 142.816406 110.28125 C 140.554688 109.085938 138.71875 108.230469 138.71875 108.441406 C 138.761719 109.726562 140.128906 113.617188 141.28125 115.625 L 142.644531 118.019531 L 141.410156 117.71875 C 140.769531 117.589844 139.445312 117.121094 138.546875 116.648438 C 137.609375 116.222656 136.796875 115.921875 136.714844 115.964844 C 136.285156 116.394531 139.617188 120.667969 141.109375 121.609375 L 142.945312 122.761719 L 141.453125 124.8125 C 140.085938 126.695312 138.933594 129.429688 139.316406 129.816406 C 139.742188 130.242188 142.945312 128.492188 143.328125 127.550781 L 143.839844 126.523438 L 149.902344 130.628906 C 153.273438 132.894531 156.902344 135.671875 157.96875 136.824219 C 159.378906 138.320312 160.273438 138.921875 161.042969 138.921875 C 161.683594 138.921875 162.195312 138.835938 162.195312 138.75 C 162.195312 138.664062 161.683594 137.679688 161.042969 136.527344 C 160.0625 134.773438 159.847656 133.917969 159.847656 131.398438 C 159.847656 128.574219 160.019531 128.0625 162.492188 122.976562 C 165.3125 117.25 169.28125 110.625 171.671875 107.714844 C 172.4375 106.777344 174.359375 105.152344 175.9375 104.082031 C 177.519531 103.058594 179.140625 101.605469 179.523438 100.878906 C 179.992188 100.109375 180.675781 99.59375 181.1875 99.59375 C 181.660156 99.59375 184.261719 99.382812 186.953125 99.125 C 191.007812 98.78125 192.414062 98.441406 195.0625 97.242188 C 196.8125 96.476562 199.796875 95.492188 201.71875 95.0625 L 205.175781 94.335938 L 207.097656 96.433594 C 211.195312 100.792969 216.574219 102.886719 222.378906 102.457031 L 225.578125 102.203125 L 231.296875 105.195312 C 236.378906 107.929688 236.933594 108.316406 236.675781 109.128906 C 236.507812 109.640625 236.121094 111.136719 235.78125 112.417969 C 233.089844 122.976562 240.347656 133.832031 251.273438 135.628906 C 252.855469 135.886719 254.21875 136.097656 254.261719 136.140625 C 254.304688 136.183594 254.730469 138.535156 255.203125 141.398438 L 256.054688 146.570312 L 253.367188 149.265625 C 245.597656 157.085938 245.554688 168.585938 253.367188 176.40625 L 256.011719 179.101562 L 255.203125 182.605469 C 254.773438 184.570312 254.175781 186.921875 253.835938 187.863281 C 253.28125 189.445312 253.109375 189.574219 250.464844 190.257812 C 242.824219 192.179688 237.402344 197.609375 235.609375 205.132812 C 234.925781 208.082031 235.269531 212.824219 236.421875 215.816406 L 237.273438 218.125 L 235.226562 220.945312 C 234.074219 222.484375 232.664062 224.195312 232.109375 224.707031 L 231.085938 225.648438 L 228.394531 224.582031 C 225.066406 223.210938 220.414062 222.785156 217.214844 223.554688 C 209.488281 225.390625 203.980469 231.035156 202.316406 238.898438 C 201.632812 242.019531 201.589844 242.105469 199.925781 242.660156 C 199.03125 243.003906 196.855469 243.515625 195.105469 243.773438 L 191.902344 244.328125 L 189.128906 241.507812 C 182.980469 235.265625 174.828125 233.8125 167.0625 237.488281 C 164.285156 238.773438 160.957031 241.722656 159.335938 244.285156 C 158.011719 246.421875 158.355469 246.421875 152.292969 244.628906 L 148.535156 243.515625 L 148.535156 241.765625 C 148.492188 233.386719 141.707031 225.351562 133.128906 223.511719 C 129.925781 222.828125 125.316406 223.253906 122.117188 224.582031 L 119.425781 225.648438 L 117.933594 224.539062 C 117.121094 223.898438 115.585938 222.359375 114.605469 221.117188 L 112.726562 218.851562 L 113.835938 216.203125 C 116.738281 209.0625 115.074219 201.070312 109.523438 195.515625 C 106.535156 192.523438 103.25 190.8125 99.066406 190.042969 L 96.25 189.53125 L 95.523438 186.324219 C 95.140625 184.613281 94.796875 182.136719 94.796875 180.851562 C 94.757812 178.671875 94.839844 178.457031 97.0625 176.066406 C 104.0625 168.5 104.230469 157.597656 97.488281 150.078125 L 95.566406 147.9375 L 96.078125 145.03125 C 96.71875 141.144531 97.742188 137.125 98.214844 136.527344 C 98.425781 136.226562 99.324219 135.886719 100.21875 135.714844 C 102.910156 135.203125 107.433594 132.550781 109.609375 130.199219 C 114.433594 124.855469 115.96875 117.675781 113.75 110.664062 L 112.980469 108.230469 L 114.007812 106.820312 C 115.714844 104.339844 118.402344 101.261719 119.214844 100.835938 C 119.769531 100.535156 120.664062 100.664062 122.371094 101.304688 C 131.507812 104.722656 142.007812 100.664062 146.316406 92.070312 C 147.46875 89.804688 148.324219 86.644531 148.621094 83.863281 C 148.75 83.054688 149.347656 82.625 151.738281 81.640625 C 153.402344 81 154.9375 80.445312 155.195312 80.402344 C 155.453125 80.359375 155.878906 81.472656 156.175781 82.796875 Z M 258.914062 105.023438 C 261.730469 105.964844 265.105469 109.339844 266.042969 112.160156 C 267.109375 115.238281 266.980469 119 265.742188 121.609375 C 264.292969 124.730469 262.796875 126.308594 259.855469 127.765625 C 254.945312 130.242188 249.480469 129.34375 245.597656 125.5 C 243.035156 122.933594 242.011719 120.328125 242.011719 116.523438 C 242.011719 111.777344 244.574219 107.800781 248.925781 105.621094 C 252 104.082031 255.5 103.871094 258.914062 105.023438 Z M 100.132812 105.449219 C 102.953125 106.390625 106.324219 109.769531 107.261719 112.589844 C 108.328125 115.667969 108.203125 119.429688 106.964844 122.035156 C 105.511719 125.15625 104.019531 126.738281 101.074219 128.191406 C 96.164062 130.671875 90.703125 129.773438 86.816406 125.925781 C 84.257812 123.359375 83.230469 120.753906 83.230469 116.949219 C 83.230469 112.203125 85.792969 108.230469 90.144531 106.050781 C 93.21875 104.511719 96.71875 104.296875 100.132812 105.449219 Z M 88.140625 151.488281 C 91.257812 152.941406 92.835938 154.4375 94.285156 157.386719 C 96.164062 161.148438 96.164062 164.738281 94.203125 168.457031 C 89.464844 177.648438 77 177.648438 72.261719 168.457031 C 71.066406 166.191406 70.855469 165.335938 70.855469 162.855469 C 70.855469 160.378906 71.066406 159.523438 72.261719 157.257812 C 73.714844 154.394531 76.574219 151.785156 79.132812 150.972656 C 81.652344 150.160156 85.835938 150.375 88.140625 151.488281 Z M 271.675781 151.488281 C 274.792969 152.941406 276.371094 154.4375 277.824219 157.386719 C 280.511719 162.730469 279.019531 169.140625 274.28125 172.730469 C 268.007812 177.519531 259.425781 175.507812 255.796875 168.457031 C 254.605469 166.191406 254.390625 165.335938 254.390625 162.855469 C 254.390625 160.378906 254.605469 159.523438 255.796875 157.257812 C 257.25 154.394531 260.109375 151.785156 262.671875 150.972656 C 265.1875 150.160156 269.371094 150.375 271.675781 151.488281 Z M 101.585938 197.824219 C 104.144531 199.148438 105.9375 200.941406 107.175781 203.378906 C 108.671875 206.285156 108.671875 211.757812 107.175781 214.664062 C 105.9375 217.101562 104.144531 218.851562 101.585938 220.21875 C 100.007812 221.03125 99.023438 221.203125 96.035156 221.203125 C 93.046875 221.203125 92.066406 221.03125 90.488281 220.21875 C 87.925781 218.851562 86.132812 217.101562 84.894531 214.664062 C 83.445312 211.800781 83.402344 206.242188 84.855469 203.464844 C 87.328125 198.71875 91.042969 196.582031 96.464844 196.753906 C 98.855469 196.839844 100.175781 197.09375 101.585938 197.824219 Z M 258.914062 197.351562 C 261.730469 198.292969 265.105469 201.667969 266.042969 204.492188 C 267.109375 207.566406 266.980469 211.328125 265.742188 213.9375 C 264.292969 217.058594 262.796875 218.640625 259.855469 220.09375 C 254.945312 222.570312 249.480469 221.671875 245.597656 217.828125 C 243.035156 215.261719 242.011719 212.65625 242.011719 208.851562 C 242.011719 204.105469 244.574219 200.128906 248.925781 197.949219 C 252 196.410156 255.5 196.199219 258.914062 197.351562 Z M 134.878906 231.164062 C 137.4375 232.488281 139.230469 234.285156 140.46875 236.71875 C 141.921875 239.582031 141.964844 245.140625 140.511719 247.917969 C 139.0625 250.699219 137.269531 252.40625 134.367188 253.691406 C 132.1875 254.671875 131.335938 254.84375 128.730469 254.671875 C 123.652344 254.417969 120.066406 252.023438 118.019531 247.40625 C 117.035156 245.226562 116.867188 244.371094 117.035156 241.765625 C 117.378906 234.496094 122.457031 229.878906 129.757812 230.09375 C 132.144531 230.179688 133.46875 230.4375 134.878906 231.164062 Z M 225.621094 230.691406 C 228.4375 231.632812 231.8125 235.011719 232.75 237.832031 C 233.816406 240.910156 233.6875 244.671875 232.453125 247.277344 C 231 250.398438 229.507812 251.980469 226.5625 253.433594 C 221.652344 255.914062 216.1875 255.015625 212.304688 251.167969 C 209.742188 248.601562 208.71875 245.996094 208.71875 242.191406 C 208.71875 237.445312 211.28125 233.472656 215.632812 231.292969 C 218.707031 229.753906 222.207031 229.539062 225.621094 230.691406 Z M 180.378906 243.386719 C 183.28125 244.757812 185.285156 246.550781 186.523438 249.074219 C 188.0625 252.023438 188.0625 257.492188 186.566406 260.402344 C 185.328125 262.835938 183.535156 264.589844 180.976562 265.957031 C 179.394531 266.769531 178.414062 266.941406 175.425781 266.941406 C 172.4375 266.941406 171.457031 266.769531 169.878906 265.957031 C 167.316406 264.589844 165.523438 262.835938 164.285156 260.402344 C 162.792969 257.492188 162.792969 252.023438 164.328125 249.074219 C 166.378906 244.96875 170.730469 242.363281 175.425781 242.363281 C 177.433594 242.363281 178.796875 242.660156 180.378906 243.386719 Z M 180.378906 243.386719 "/>
<path style=" stroke:none;fill-rule:nonzero;fill:rgb(0%,0%,0%);fill-opacity:1;" d="M 173.507812 66.210938 C 171.585938 67.066406 170.519531 68.777344 170.519531 71 C 170.519531 72.792969 170.730469 73.265625 171.925781 74.460938 C 173.121094 75.65625 173.589844 75.871094 175.425781 75.871094 C 177.261719 75.871094 177.730469 75.65625 178.925781 74.460938 C 180.121094 73.265625 180.335938 72.792969 180.335938 70.957031 C 180.335938 69.160156 180.121094 68.648438 179.011719 67.492188 C 177.605469 66.082031 175.085938 65.527344 173.507812 66.210938 Z M 173.507812 66.210938 "/>
<path style=" stroke:none;fill-rule:nonzero;fill:rgb(0%,0%,0%);fill-opacity:1;" d="M 126.980469 78.648438 C 125.359375 79.292969 124.121094 81.085938 123.910156 83.054688 C 123.695312 84.804688 123.824219 85.105469 125.1875 86.601562 C 126.554688 88.097656 126.894531 88.269531 128.859375 88.269531 C 130.695312 88.269531 131.207031 88.054688 132.359375 86.941406 C 134.878906 84.378906 134.324219 80.359375 131.207031 78.863281 C 129.714844 78.179688 128.304688 78.09375 126.980469 78.648438 Z M 126.980469 78.648438 "/>
<path style=" stroke:none;fill-rule:nonzero;fill:rgb(0%,0%,0%);fill-opacity:1;" d="M 218.75 78.648438 C 214.867188 80.230469 214.652344 86.046875 218.410156 87.839844 C 222.761719 89.933594 227.242188 85.445312 225.152344 81.085938 C 224.085938 78.777344 221.097656 77.667969 218.75 78.648438 Z M 218.75 78.648438 "/>
<path style=" stroke:none;fill-rule:nonzero;fill:rgb(0%,0%,0%);fill-opacity:1;" d="M 252.46875 111.949219 C 250.546875 112.804688 249.480469 114.511719 249.480469 116.734375 C 249.480469 118.53125 249.695312 119 250.890625 120.199219 C 252.085938 121.394531 252.554688 121.609375 254.390625 121.609375 C 257.207031 121.609375 259.085938 119.898438 259.382812 116.992188 C 259.597656 115.28125 259.46875 114.941406 258.1875 113.53125 C 256.652344 111.820312 254.21875 111.179688 252.46875 111.949219 Z M 252.46875 111.949219 "/>
<path style=" stroke:none;fill-rule:nonzero;fill:rgb(0%,0%,0%);fill-opacity:1;" d="M 93.6875 112.417969 C 92.28125 112.972656 90.914062 114.769531 90.660156 116.351562 C 89.847656 121.136719 95.695312 124.046875 99.109375 120.625 C 102.992188 116.777344 98.726562 110.324219 93.6875 112.417969 Z M 93.6875 112.417969 "/>
<path style=" stroke:none;fill-rule:nonzero;fill:rgb(0%,0%,0%);fill-opacity:1;" d="M 81.3125 158.113281 C 79.390625 158.96875 78.324219 160.675781 78.324219 162.898438 C 78.324219 164.695312 78.535156 165.164062 79.730469 166.363281 C 80.925781 167.558594 81.394531 167.773438 83.230469 167.773438 C 85.066406 167.773438 85.535156 167.558594 86.730469 166.363281 C 87.925781 165.164062 88.140625 164.695312 88.140625 162.855469 C 88.140625 161.0625 87.925781 160.550781 86.816406 159.394531 C 85.410156 157.984375 82.890625 157.429688 81.3125 158.113281 Z M 81.3125 158.113281 "/>
<path style=" stroke:none;fill-rule:nonzero;fill:rgb(0%,0%,0%);fill-opacity:1;" d="M 264.847656 158.113281 C 262.925781 158.96875 261.859375 160.675781 261.859375 162.898438 C 261.859375 164.695312 262.074219 165.164062 263.269531 166.363281 C 264.464844 167.558594 264.933594 167.773438 266.769531 167.773438 C 268.605469 167.773438 269.074219 167.558594 270.269531 166.363281 C 271.464844 165.164062 271.675781 164.695312 271.675781 162.855469 C 271.675781 161.0625 271.464844 160.550781 270.355469 159.394531 C 268.945312 157.984375 266.425781 157.429688 264.847656 158.113281 Z M 264.847656 158.113281 "/>
<path style=" stroke:none;fill-rule:nonzero;fill:rgb(0%,0%,0%);fill-opacity:1;" d="M 94.117188 204.277344 C 92.195312 205.132812 91.128906 206.839844 91.128906 209.0625 C 91.128906 210.859375 91.339844 211.328125 92.535156 212.527344 C 93.730469 213.722656 94.203125 213.9375 96.035156 213.9375 C 97.871094 213.9375 98.339844 213.722656 99.535156 212.527344 C 100.730469 211.328125 100.945312 210.859375 100.945312 209.019531 C 100.945312 207.226562 100.730469 206.714844 99.621094 205.558594 C 98.214844 204.148438 95.695312 203.59375 94.117188 204.277344 Z M 94.117188 204.277344 "/>
<path style=" stroke:none;fill-rule:nonzero;fill:rgb(0%,0%,0%);fill-opacity:1;" d="M 252.042969 204.320312 C 250.164062 205.089844 249.054688 206.839844 249.054688 209.0625 C 249.054688 210.859375 249.269531 211.328125 250.464844 212.527344 C 251.660156 213.722656 252.128906 213.9375 253.964844 213.9375 C 255.757812 213.9375 256.269531 213.722656 257.378906 212.65625 C 261.347656 208.679688 257.164062 202.183594 252.042969 204.320312 Z M 252.042969 204.320312 "/>
<path style=" stroke:none;fill-rule:nonzero;fill:rgb(0%,0%,0%);fill-opacity:1;" d="M 127.410156 238.046875 C 125.488281 238.898438 124.421875 240.609375 124.421875 242.832031 C 124.421875 244.628906 124.632812 245.097656 125.828125 246.292969 C 127.023438 247.492188 127.492188 247.707031 129.328125 247.707031 C 131.164062 247.707031 131.632812 247.492188 132.828125 246.292969 C 134.023438 245.097656 134.238281 244.628906 134.238281 242.789062 C 134.238281 240.996094 134.023438 240.480469 132.914062 239.328125 C 131.507812 237.917969 128.988281 237.359375 127.410156 238.046875 Z M 127.410156 238.046875 "/>
<path style=" stroke:none;fill-rule:nonzero;fill:rgb(0%,0%,0%);fill-opacity:1;" d="M 218.75 237.234375 C 216.105469 238.300781 214.78125 242.019531 216.230469 244.457031 C 218.664062 248.601562 225.023438 247.277344 225.664062 242.492188 C 226.175781 238.730469 222.25 235.738281 218.75 237.234375 Z M 218.75 237.234375 "/>
<path style=" stroke:none;fill-rule:nonzero;fill:rgb(0%,0%,0%);fill-opacity:1;" d="M 173.507812 250.011719 C 171.585938 250.867188 170.519531 252.578125 170.519531 254.800781 C 170.519531 256.597656 170.730469 257.066406 171.925781 258.261719 C 173.121094 259.460938 173.589844 259.671875 175.425781 259.671875 C 177.261719 259.671875 177.730469 259.460938 178.925781 258.261719 C 180.121094 257.066406 180.335938 256.597656 180.335938 254.757812 C 180.335938 252.960938 180.121094 252.449219 179.011719 251.296875 C 177.605469 249.886719 175.085938 249.328125 173.507812 250.011719 Z M 173.507812 250.011719 "/>
</g>
</svg>
